<svg id="Layer_1" data-name="Layer 1" xmlns="http://www.w3.org/2000/svg" viewBox="0 0 442.4 404.21"><defs><style>.cls-1{fill:#f07b05;}</style></defs><title>logo-elite-dangerous-icon</title><g id="Icon"><polygon class="cls-1" points="221.15 213.98 235.69 201.21 261.41 201.21 254.62 195.34 237.41 192.36 236.99 186.21 248.95 186.21 242.09 180.48 234.09 179.12 232.09 166.78 235.49 163.85 230.83 107.43 228.5 120.16 227.23 152.23 221.13 156.81 215.11 152.23 213.84 120.16 211.51 107.43 206.85 163.85 210.24 166.78 208.24 179.32 200.25 180.48 193.39 186.21 205.34 186.21 204.92 192.36 187.71 195.34 180.92 201.21 206.65 201.21 221.15 213.98"/><path class="cls-1" d="M262.82,162.41l-.1,0v7.25s13.58,10.69,13.58,23.53l-14.87,15-15.26,0-11.43,11.16,0,.08h0l-.78,3.8H208.5l-.78-3.79h0l0-.08-11.43-11.13-15.27,0-14.87-15c0-12.8,13.59-23.47,13.59-23.47v-7.39l-.1,0L0,0C.1,38.74.1,45.43,16.66,60.91c.37.33,14.8,14,16.86,15.62v.28c0,35.84,0,35.84,14,48,.44.39,16.31,15.25,16.31,15.25s-.06,5.07,0,6.69c0,25.75,0,26.05,11.79,38.8,4.4,4.76,22.72,22,40.69,38.62H59.32l63.82,57H193l-6.24,11H134.68l17.47,15h45.41l23.66-46.51,24.16,46.51h44.74l17.47-15H256.16l-6.24-11H320l63.15-57h-57c18-16.66,36.27-33.86,40.68-38.61,11.81-12.75,11.78-13,11.78-38.79,0-1.63,0-6.7,0-6.7s15.87-14.85,16.31-15.24c14-12.2,14-12.2,14-48v-.28C411,75,425.37,61.27,425.74,60.94,442.3,45.47,442.3,38.77,442.4,0Z"/><path class="cls-1" d="M221.52,404.21l0,0,0,0Z"/><path class="cls-1" d="M221.63,291.19,199.06,345l15.52,15.07c-2.06,12.95-4,25.91-4.1,28.64-.14,5.64,10.49,15,11,15.5.53-.46,11.15-9.86,11-15.5-.07-2.65-1.93-15-3.93-27.57L244.07,345Z"/></g></svg>